<svg width="281" height="60" viewBox="0 0 281 60" fill="none" xmlns="http://www.w3.org/2000/svg">
<path d="M31.113 8.15427V3.85675C31.113 1.70799 29.3633 0 27.2308 0C25.0983 0 23.4032 1.76309 23.4032 3.85675V8.09917C10.9362 9.97245 1.3125 20.7713 1.3125 33.8292C1.3125 48.1543 12.9046 59.8347 27.1214 59.8347C41.3382 59.8347 52.9303 48.1543 52.9303 33.8292C52.8756 20.8815 43.416 10.1377 31.113 8.15427ZM27.1214 55.0964C15.4746 55.0964 6.01497 45.5647 6.01497 33.8292C6.01497 23.416 13.5061 14.7107 23.4032 12.9477V17.5758C23.4032 18.843 24.0047 20 24.9342 20.7163V24.6281H16.2401C15.2559 24.6281 14.3263 25.124 13.7795 26.0055C13.2874 26.8871 13.2327 27.9339 13.7248 28.8154L24.7155 49.9174C25.2076 50.854 26.1919 51.4601 27.2308 51.4601C28.3244 51.4601 29.2539 50.854 29.746 49.9174L40.7367 28.8154C41.1741 27.9339 41.1741 26.832 40.6273 26.0055C40.1352 25.1791 39.2057 24.6281 38.2214 24.6281H29.5273V20.7163C30.5116 20 31.113 18.843 31.113 17.5758V12.9477C40.8461 14.876 48.1732 23.5262 48.1732 33.8292C48.1732 45.5647 38.7136 55.0964 27.1214 55.0964ZM183.834 46.0055H175.359V35.7025H182.576V26.6667H175.359V17.7961H183.014V8.31956H163.821V55.4821H183.834V46.0055ZM96.5649 17.741H100.174V55.427H111.657V8.31956H85.0821V55.427H96.5649V17.741ZM81.2545 46.0606H72.7245V35.7025H79.9969V26.6667H72.7245V17.6859H80.5437V8.31956H61.0776V55.427H81.2545V46.0606ZM199.144 35.7576H202.699V55.4821H214.236V8.37466H202.699V25.2893H199.144V8.37466H187.662V55.4821H199.144V35.7576ZM224.844 55.4821H236.327V17.7961H243.216V8.37466H218.009V17.7961H224.844V55.4821ZM126.967 8.31956H115.484V55.427H126.967V8.31956ZM160.048 46.0055H157.588V8.31956H145.996V46.0055H142.387V8.31956H130.795V55.3719H152.01V60H160.048V46.0055ZM271.431 14.9862C271.158 13.5537 270.556 12.3967 269.736 11.405C268.861 10.4132 267.604 9.64187 265.909 9.14601C264.213 8.59504 261.808 8.37466 258.691 8.37466H247.044V55.4821H258.527V36.4738H261.644C264.159 36.4738 266.237 36.0882 267.768 35.3719C269.353 34.6556 270.392 33.5537 270.994 32.1763C271.595 30.7989 271.869 28.595 271.869 25.6198V21.4876C271.869 18.5675 271.705 16.3636 271.431 14.9862ZM259.675 27.4931C256.34 27.4931 253.606 24.7383 253.606 21.3774C253.606 18.0165 256.34 15.2617 259.675 15.2617C263.01 15.2617 265.745 18.0165 265.745 21.3774C265.745 24.7934 263.01 27.4931 259.675 27.4931Z" fill="white"/>
<path d="M259.675 16.7491C257.105 16.7491 255.027 18.8428 255.027 21.3772C255.027 23.9667 257.105 26.0053 259.675 26.0053C262.245 26.0053 264.323 23.9116 264.323 21.3772C264.268 18.8428 262.19 16.7491 259.675 16.7491ZM260.495 24.4626L259.183 21.9282V24.4626H257.269V18.402H259.183V20.9915L260.441 18.402H262.683L261.042 21.4323L262.901 24.5177L260.495 24.4626Z" fill="white"/>
<path d="M279.196 13.4987L278.594 12.507C278.485 12.3417 278.376 12.1764 278.212 12.0662C278.376 12.0111 278.54 11.9009 278.649 11.7907C278.868 11.5703 278.922 11.2948 278.922 11.0194C278.922 10.799 278.868 10.5786 278.758 10.3582C278.649 10.1378 278.485 10.0276 278.266 9.91743C278.047 9.86233 277.829 9.80724 277.446 9.80724H275.642V13.8293H276.571V12.2315H277.118C277.173 12.2315 277.227 12.2866 277.282 12.2866C277.337 12.2866 277.391 12.3417 277.446 12.4519C277.555 12.5621 277.665 12.7273 277.774 12.9477L278.266 13.664L278.321 13.7742H279.414L279.196 13.4987ZM277.993 11.2397C277.938 11.2948 277.883 11.3499 277.829 11.3499C277.719 11.405 277.61 11.405 277.391 11.405H276.571V10.6337H277.501C277.719 10.6337 277.883 10.6888 277.938 10.7439C277.993 10.799 278.047 10.9092 278.047 11.0194C278.047 11.0745 277.993 11.1296 277.993 11.2397Z" fill="white"/>
<path d="M280.234 11.8458C280.234 13.4436 278.922 14.7659 277.336 14.7659C275.751 14.7659 274.438 13.4436 274.438 11.8458C274.438 10.248 275.751 8.92572 277.336 8.92572C278.922 8.87063 280.234 10.1929 280.234 11.8458ZM277.336 8.15437C275.313 8.15437 273.673 9.80727 273.673 11.8458C273.673 13.8844 275.313 15.5373 277.336 15.5373C279.36 15.5373 281 13.8844 281 11.8458C281 9.80727 279.305 8.15437 277.336 8.15437Z" fill="white"/>
</svg>
