<svg width="60" height="60" viewBox="0 0 60 60" fill="none" xmlns="http://www.w3.org/2000/svg">
<path d="M58.0729 25.5643L52.3091 14.5262C51.9654 13.8749 51.381 13.3836 50.6804 13.1568C49.9798 12.93 49.2183 12.9858 48.5582 13.3121L42.9039 16.1392H38.6401L30.722 12.5565C30.1103 12.2802 29.42 12.2314 28.7755 12.4189L17.0153 15.8474L11.4421 13.0611C10.782 12.7349 10.0206 12.6792 9.32007 12.9059C8.61951 13.1325 8.03507 13.6236 7.69116 14.2747L1.92741 25.3131C1.7545 25.6441 1.64928 26.0064 1.61787 26.3785C1.58646 26.7507 1.62951 27.1254 1.74449 27.4808C1.85947 27.8362 2.04409 28.1651 2.28756 28.4484C2.53103 28.7316 2.82849 28.9635 3.16256 29.1306L8.87194 31.9853L21.6088 41.9448C21.9188 42.1881 22.2768 42.363 22.6593 42.4581L36.243 45.8539C36.4639 45.9089 36.6907 45.9367 36.9184 45.9367C37.6661 45.9369 38.3834 45.6412 38.9137 45.114L47.538 36.4897C47.5553 36.4724 47.5719 36.4546 47.5879 36.4358L51.2146 32.1931L56.8377 29.3816C57.1717 29.2145 57.4691 28.9826 57.7126 28.6994C57.956 28.4161 58.1406 28.0872 58.2556 27.7319C58.3706 27.3766 58.4136 27.0019 58.3822 26.6297C58.3509 26.2576 58.2457 25.8954 58.0729 25.5643ZM46.7256 34.5589L37.1139 27.5685C36.9517 27.4506 36.7561 27.3878 36.5557 27.3893C36.3552 27.3908 36.1605 27.4564 36.0001 27.5767L33.0001 29.8267C31.862 30.6735 30.4812 31.1308 29.0626 31.1308C27.6441 31.1308 26.2633 30.6735 25.1251 29.8267L23.8548 28.8739C23.7474 28.7934 23.6585 28.6907 23.5942 28.5727C23.5298 28.4548 23.4916 28.3245 23.482 28.1905C23.4725 28.0566 23.4918 27.9221 23.5388 27.7962C23.5857 27.6704 23.6591 27.5561 23.754 27.4611L32.9263 18.2888C33.1025 18.1136 33.3406 18.0149 33.5891 18.0142H38.4351L38.4372 18.0144H42.557L49.5008 31.3121L46.7256 34.5589ZM3.52866 26.9035C3.48993 26.7851 3.47537 26.6602 3.48584 26.5361C3.4963 26.4119 3.53159 26.2912 3.58959 26.181L9.35311 15.1428C9.43321 14.9909 9.55334 14.8638 9.70049 14.7752C9.84764 14.6866 10.0162 14.64 10.188 14.6403C10.3321 14.6402 10.4743 14.6738 10.6033 14.7383L15.6025 17.2377L8.97014 29.9385L4.00092 27.4536C3.88938 27.3982 3.79008 27.3211 3.70892 27.2266C3.62776 27.1322 3.56638 27.0224 3.52842 26.9038L3.52866 26.9035ZM37.588 43.7881C37.4733 43.9024 37.3311 43.9851 37.1751 44.0283C37.0191 44.0715 36.8545 44.0737 36.6974 44.0347L23.1137 40.6386C22.9863 40.607 22.8671 40.5487 22.7638 40.4678L10.5674 30.931L17.4969 17.66L29.3001 14.2189C29.515 14.1562 29.7453 14.1725 29.9493 14.2649L34.0916 16.1392H33.5891C33.2197 16.1382 32.8537 16.2105 32.5124 16.3519C32.1711 16.4933 31.8612 16.701 31.6007 16.963L22.4284 26.1353C22.1435 26.4202 21.9231 26.763 21.7822 27.1405C21.6413 27.518 21.5832 27.9214 21.6117 28.3233C21.6403 28.7252 21.7549 29.1164 21.9478 29.4701C22.1406 29.8239 22.4072 30.1321 22.7296 30.3739L23.9999 31.3269C25.4633 32.4156 27.2387 33.0036 29.0626 33.0036C30.8866 33.0036 32.662 32.4156 34.1254 31.3269L36.5711 29.4922L45.4365 35.9396L37.588 43.7881ZM56.4716 27.1546C56.4337 27.2732 56.3723 27.383 56.2912 27.4775C56.21 27.572 56.1107 27.6492 55.9991 27.7046L51.0299 30.1892L44.3978 17.4885L49.3968 14.9893C49.6168 14.8805 49.8706 14.8619 50.1041 14.9374C50.3376 15.013 50.5324 15.1768 50.6469 15.3938L56.4109 26.432C56.469 26.5422 56.5043 26.663 56.5147 26.7872C56.5252 26.9114 56.5106 27.0364 56.4719 27.1548L56.4716 27.1546ZM27.1597 50.1165C27.13 50.236 27.077 50.3485 27.0038 50.4474C26.9305 50.5464 26.8385 50.63 26.7329 50.6934C26.6273 50.7567 26.5103 50.7987 26.3885 50.8168C26.2666 50.8348 26.1425 50.8287 26.023 50.7988L18.959 49.033C18.5291 48.9249 18.1306 48.7173 17.7958 48.4269L12.5101 43.8327C12.4166 43.7521 12.34 43.6538 12.2846 43.5435C12.2292 43.4332 12.1961 43.3131 12.1872 43.19C12.1783 43.0668 12.1939 42.9432 12.2329 42.8261C12.2719 42.709 12.3337 42.6008 12.4147 42.5076C12.4957 42.4144 12.5942 42.3382 12.7048 42.2832C12.8153 42.2282 12.9356 42.1956 13.0587 42.1873C13.1819 42.1789 13.3054 42.1949 13.4224 42.2344C13.5393 42.274 13.6473 42.3362 13.7401 42.4175L19.026 47.0122C19.1378 47.1089 19.2707 47.1781 19.4141 47.2142L26.4775 48.98C26.7186 49.0403 26.926 49.194 27.0539 49.4072C27.1818 49.6203 27.2198 49.8756 27.1595 50.1167L27.1597 50.1165Z" fill="#11192E"/>
</svg>
